<svg width="96" height="96" viewBox="0 0 96 96" fill="none" xmlns="http://www.w3.org/2000/svg">
<path d="M83.34 26.96C82.54 27.48 81.4 27.96 80.92 28.5C80.74 28.68 80.64 28.88 80.68 29.08V31.14L80.08 33.16L79.48 35.16L78.82 37.36L77.46 41.86L76.14 46.3L75.14 49.64C75.14 50.16 75.12 50.68 75.08 51.18C74.94 53.1 74.54 54.94 73.9 56.66C73.52 57.72 73.06 58.74 72.5 59.7C72.3 60.08 72.06 60.46 71.82 60.82C71.02 62.08 70.06 63.24 69 64.26C68.18 65.08 67.28 65.84 66.3 66.48C66.3 66.48 66.3 66.48 66.28 66.48C66.12 66.62 65.94 66.74 65.74 66.84C65.12 67.26 64.46 67.62 63.78 67.94C63.32 68.18 62.86 68.38 62.38 68.56C62.28 68.62 62.16 68.66 62.06 68.7C60.92 69.24 59.6 69.6 58.28 69.78C58.2 69.8 58.14 69.8 58.06 69.82C57.26 69.96 56.48 70.08 55.68 70.14C55.32 70.18 54.94 70.2 54.58 70.2L53.16 70.12L46.32 69.76C46.32 69.74 46.3 69.76 46.3 69.76L42.86 69.58C42.6 69.58 42.32 69.58 42.06 69.56C40.98 69.52 39.94 69.4 38.9 69.18C38.88 69.18 38.88 69.18 38.88 69.18C36.98 68.82 35.16 68.18 33.46 67.32C32.52 66.84 31.6 66.3 30.74 65.68C30.38 65.42 30.04 65.14 29.7 64.84C28.74 64.04 27.88 63.18 27.08 62.3C26.96 62.18 26.86 62.06 26.76 61.94C26.64 61.82 26.52 61.68 26.42 61.56C25.66 60.6 25.02 59.62 24.5 58.58C24.02 57.66 23.64 56.68 23.34 55.6C23.22 55.22 23.12 54.86 23.04 54.46C23.02 54.44 23 54.4 23 54.36C22.8 53.54 22.62 52.68 22.52 51.82C22.4 51.16 22.34 50.5 22.34 49.82C22.3 49.56 22.3 49.28 22.3 49.02L26.12 43.12L29.86 37.36L31.56 34.74L33.1 32.38L33.62 31.56V29.5C33.66 29.04 33.68 28.56 33.66 28.12C33.64 26.72 33.36 25.36 32.9 24.06C32.46 22.68 31.84 21.38 31.2 20.18C30.44 18.8 29.64 17.56 28.98 16.44C28 14.8 27.32 13.46 27.5 12.52C28.94 12.18 30.46 12 32 12H64C72.36 12 79.56 17.2 82.54 24.52C82.86 25.3 83.14 26.12 83.34 26.96Z" fill="#FFBF00"/>
<path d="M84 32V32.54L81.24 34.14L79.48 35.16L77.54 36.28L73.66 38.54L69.86 40.74L65.98 42.98L64.44 43.88C64.44 44.84 64.2 45.72 63.76 46.52C63.14 47.68 62.1 48.64 60.78 49.46C59.44 50.28 57.8 50.94 55.96 51.42C55.96 51.42 55.96 51.4 55.94 51.42C48.82 53.26 39.1 52.42 34.38 48.9C33.06 47.92 32.14 46.72 31.74 45.34C31.62 44.88 31.56 44.38 31.56 43.88V29.5C31.58 29.2 31.38 28.9 31.02 28.6C29.94 27.74 27.4 26.92 24.56 26.1C22.34 25.48 19.96 24.86 17.96 24.26C16.38 23.78 15.04 23.3 14.24 22.84C14.6 22.14 15.02 21.44 15.46 20.78C18.26 16.68 22.54 13.66 27.5 12.52C28.94 12.18 30.46 12 32 12H53.6C64.34 13.88 74.24 18.26 82.54 24.52C82.86 25.3 83.14 26.12 83.34 26.96C83.7 28.28 83.92 29.64 83.98 31.06C84 31.36 84 31.68 84 32Z" fill="#FFBF00"/>
<path d="M84 32V40.82L83.56 42.18L82.06 46.84L80.5 51.64L79.68 54.2L78.92 56.58L78.18 58.84L77.46 61.08L77.08 62.26L76.58 63.82C76.58 65.34 76.54 66.68 76.44 67.82C76.42 67.94 76.4 68.06 76.4 68.18C76.28 69.24 76.12 70.14 75.86 70.9C75.84 71.02 75.8 71.14 75.76 71.24C75.24 72.68 74.46 73.6 73.3 74.2C73.02 74.36 72.7 74.48 72.36 74.6C71.3 74.96 69.96 75.14 68.32 75.24C67.12 75.32 65.74 75.34 64.18 75.34H62.8L60.42 75.24L60 75.22L55.66 75.04L51.26 74.86L36.76 74.26L33 74.1H32.48C30.92 74.08 29.58 73.98 28.42 73.82C26.74 73.56 25.44 73.12 24.46 72.46C23.06 71.56 22.24 70.24 21.76 68.4C21.64 67.96 21.54 67.5 21.48 67C21.28 65.84 21.18 64.5 21.12 63C21.12 62.7 21.12 62.4 21.1 62.08C21.08 62.06 21.1 62.06 21.1 62.06V60.9C21.08 60.32 21.08 59.72 21.08 59.1L21.18 55.88L21.24 53.58L21.32 50.9V50.52L21.46 45.6L21.6 40.68L21.74 36.06L21.86 31.52L21.9 30.32C21.9 29.7 19.8 29.34 17.46 29.04C15.6 28.8 13.56 28.58 12.34 28.3C12.44 27.84 12.54 27.38 12.66 26.94C13.02 25.5 13.56 24.14 14.24 22.84C14.6 22.14 15.02 21.44 15.46 20.78C19.78 18.88 24.28 17.4 28.98 16.44C33.1 15.58 37.4 15.12 41.84 15.12C56.56 15.12 70.16 20.1 80.92 28.5C81.96 29.3 82.98 30.16 83.98 31.06C84 31.36 84 31.68 84 32Z" fill="#FFBF00"/>
<path d="M84 36.74V45.82L82.9 47.94L80.8 52.04L79.68 54.2L78.66 56.18L78.22 57.04C78.22 57.66 78.22 58.26 78.18 58.84C78.18 59.7 78.14 60.52 78.08 61.28C78 62.18 77.88 63 77.76 63.76C77.46 65.34 77.04 66.7 76.44 67.82C76.36 67.96 76.28 68.1 76.2 68.22C75.98 68.58 75.72 68.92 75.44 69.24C75.08 69.68 74.68 70.06 74.22 70.38C73.54 70.9 72.74 71.32 71.82 71.64C70.68 72.06 69.36 72.34 67.8 72.5C66.78 72.6 65.66 72.66 64.44 72.66L63.6 72.7L59.44 72.94H59.42L55 73.2L50.5 73.46L44.3 73.82L36.76 74.26L35.66 74.32C34.64 74.32 33.68 74.26 32.76 74.14C32.66 74.12 32.58 74.1 32.48 74.1C31.12 73.88 29.88 73.52 28.76 73.02C27.4 72.42 26.22 71.62 25.22 70.66C24.34 69.8 23.58 68.82 22.96 67.72C22.82 67.46 22.68 67.22 22.56 66.94C21.96 65.76 21.48 64.44 21.12 63C21.06 62.76 21 62.5 20.96 62.24C20.84 61.78 20.74 61.3 20.68 60.8C20.46 59.52 20.34 58.16 20.28 56.74V56.72C20.26 56.14 20.24 55.58 20.24 54.98L19.26 52.64L19.12 52.28L19 51.98L17.5 48.4L17.26 47.82L15.82 44.36L14.22 40.5C14.22 40.5 14.22 40.5 14.2 40.5L12.58 36.6L12 35.18V32C12 30.74 12.12 29.5 12.34 28.3C12.44 27.84 12.54 27.38 12.66 26.94C14.36 25.96 16.14 25.06 17.96 24.26C22.12 22.4 26.58 21.02 31.2 20.18C34.64 19.56 38.22 19.22 41.84 19.22C56.46 19.22 69.72 24.52 80.08 33.16C80.48 33.48 80.86 33.8 81.24 34.14C82.18 34.96 83.1 35.82 84 36.74Z" fill="#FFBF00"/>
<path d="M84 42.7V52.98L82.86 55.36L80.7 59.86L80.68 59.92C80.68 60.78 80.64 61.56 80.58 62.26C80.38 64.56 79.82 66.02 78.9 66.92C78.24 67.6 77.42 67.98 76.4 68.18C76.34 68.2 76.26 68.2 76.2 68.22C75.88 68.28 75.54 68.32 75.18 68.32C73.94 68.44 72.48 68.36 70.8 68.24C70.62 68.24 70.42 68.22 70.22 68.2C69 68.12 67.7 68.04 66.26 67.98C65.48 67.96 64.66 67.94 63.82 67.94H63.78L61.76 68.1H61.74L57.2 68.42L52.02 68.82L51.26 68.88L45.2 69.32L42.06 69.56L38.96 69.78C38.42 69.78 37.9 69.78 37.38 69.76C37.38 69.76 37.36 69.74 37.36 69.76C35.1 69.72 33.08 69.58 31.28 69.24C29.62 68.96 28.16 68.52 26.92 67.86C25.64 67.24 24.58 66.36 23.72 65.24C22.9 64.14 22.3 62.76 21.92 61.1C21.92 61.08 21.92 61.08 21.92 61.08C21.64 59.74 21.48 58.18 21.48 56.42L21.18 55.88L19.4 52.7L19.14 52.26L19 51.98L17.14 48.68L16.22 47.02L15.06 44.96L13.06 41.38L12 39.5V32.14C13.76 30.98 15.58 29.96 17.46 29.04C19.74 27.88 22.1 26.9 24.56 26.1C27.24 25.22 30.04 24.52 32.9 24.06C35.8 23.58 38.78 23.34 41.84 23.34C55.44 23.34 67.92 28.2 77.54 36.28C77.98 36.62 78.4 37 78.82 37.36C80.5 38.86 82.1 40.48 83.56 42.18C83.72 42.36 83.88 42.52 84 42.7Z" fill="#FFBF00"/>
<path d="M84 49.42V63.88C83.52 63.6 82.86 63.26 82.04 62.9C81.6 62.68 81.1 62.46 80.58 62.26C79.82 61.92 79 61.6 78.08 61.28C77.88 61.2 77.68 61.14 77.46 61.08C77.1 60.94 76.72 60.82 76.34 60.7C75.16 60.34 73.86 60 72.5 59.7C71.98 59.6 71.44 59.5 70.9 59.42C69.16 59.12 67.3 58.94 65.36 58.92C65.2 58.9 65.02 58.9 64.86 58.9L59.72 58.94L52.72 58.98H52.7L37.72 59.1C32.96 59.1 30.04 60.24 28.28 60.7C28.28 60.7 28.26 60.7 28.26 60.72C26.4 61.2 25.82 60.9 25.66 57.64C25.62 56.74 25.6 55.58 25.6 54.16L24.48 53.3L22.52 51.82L21.32 50.9L21.08 50.72L17.76 48.2L17.26 47.82L16.22 47.02L14.3 45.58L12 43.82V37.02C12.2 36.86 12.38 36.72 12.58 36.6C15.48 34.6 18.58 32.9 21.86 31.52C24.78 30.28 27.86 29.3 31.02 28.6C31.88 28.42 32.76 28.24 33.66 28.12C36.32 27.66 39.06 27.44 41.84 27.44C53.86 27.44 64.9 31.62 73.66 38.54C74.98 39.58 76.26 40.68 77.46 41.86C79.1 43.42 80.64 45.08 82.06 46.84C82.34 47.2 82.62 47.56 82.9 47.94C83.28 48.42 83.64 48.92 84 49.42Z" fill="#FFBF00"/>
<path d="M84 57.44V64C84 65.3 83.88 66.58 83.64 67.82C83.28 69.66 82.66 71.42 81.82 73.06C81.38 73.16 80.88 73.16 80.32 73.08C79.06 72.86 77.58 72.2 75.98 71.34C75.9 71.32 75.82 71.28 75.76 71.24C75.26 70.98 74.74 70.7 74.22 70.38C73.16 69.8 72.04 69.16 70.92 68.56C70.68 68.44 70.44 68.32 70.22 68.2C68.94 67.54 67.62 66.94 66.3 66.48C66.3 66.48 66.3 66.48 66.28 66.48C66 66.38 65.7 66.28 65.4 66.2C64.26 65.88 63.1 65.68 61.98 65.68L59.78 65.04L50.04 62.22C50.04 62.22 50.04 62.22 50.02 62.22L44.04 60.48H44.02L41.42 59.72C33.9 59.72 29.28 62.92 27.04 61.7C26.16 61.24 25.64 60.08 25.46 57.8C25.4 57.16 25.38 56.44 25.38 55.6L23.04 54.46L22.94 54.42H22.92L21.24 53.58L19.4 52.7L19.26 52.64L18.92 52.46L15 50.56L12 49.1V42.24C12.34 41.94 12.7 41.66 13.06 41.38C13.44 41.08 13.82 40.8 14.2 40.5C14.22 40.5 14.22 40.5 14.22 40.5C16.58 38.8 19.08 37.3 21.74 36.06C24.84 34.58 28.14 33.44 31.56 32.7C32.06 32.58 32.58 32.46 33.1 32.38C35.94 31.84 38.86 31.56 41.84 31.56C52.38 31.56 62.06 34.98 69.86 40.74C72.12 42.42 74.22 44.28 76.14 46.3C77.72 47.96 79.18 49.76 80.5 51.64C80.6 51.78 80.7 51.92 80.8 52.04C81.54 53.12 82.22 54.22 82.86 55.36C83.28 56.04 83.64 56.74 84 57.44Z" fill="#FFBF00"/>
<path d="M83.64 67.82C83.28 69.66 82.66 71.42 81.82 73.06C81.44 73.8 81.02 74.5 80.56 75.18C80.28 75.6 79.98 76 79.68 76.38C78.96 76.1 77.9 75.7 76.6 75.26C76.6 75.26 76.6 75.26 76.6 75.24C75.62 74.9 74.5 74.54 73.3 74.2C72.96 74.1 72.62 74 72.26 73.9C70.84 73.52 69.36 73.18 67.92 72.98C66.72 72.78 65.54 72.66 64.44 72.66L63.52 72.4H63.5L58.66 71L55.68 70.14L52.36 69.18H52.34L51.26 68.88L38.2 65.12L34.44 64.04L31.64 63.38L27.08 62.3L26.52 62.16C26.52 62.16 26.52 62.16 26.5 62.16L21.92 61.1C21.92 61.08 21.92 61.08 21.92 61.08L21.1 60.9L20.68 60.8L17.34 60.02L16.96 59.92L14.12 57.58L12 55.8V47.64C12.74 46.92 13.5 46.24 14.3 45.58C14.54 45.36 14.8 45.16 15.06 44.96C15.3 44.76 15.56 44.56 15.82 44.36C17.64 42.98 19.56 41.74 21.6 40.68C24.2 39.28 26.96 38.16 29.86 37.36C30.42 37.18 30.98 37.02 31.56 36.9C34.84 36.08 38.28 35.66 41.84 35.66C50.78 35.66 59.1 38.36 65.98 42.98C69.4 45.28 72.48 48.04 75.08 51.18C76.4 52.76 77.6 54.42 78.66 56.18C78.76 56.32 78.84 56.44 78.92 56.58C79.56 57.64 80.16 58.74 80.7 59.86C81.2 60.86 81.64 61.86 82.04 62.9C82.68 64.5 83.2 66.14 83.64 67.82Z" fill="#FFBF00"/>
<path d="M80.56 75.18C80.28 75.6 79.98 76 79.68 76.38C78.8 77.48 77.84 78.48 76.76 79.36C75.82 80.14 74.82 80.84 73.76 81.44C73.36 81.34 72.96 81.22 72.54 81.06C71.22 80.6 69.84 79.84 68.56 79.04C66.64 77.82 64.98 76.5 64.24 75.9C63.96 75.66 63.82 75.54 63.82 75.54L60.42 75.24L60 75.2L55.6 74.82L51.04 74.42L44.3 73.82L33.62 72.88L33.58 72.86L29.82 71.04L26.02 69.2L22.96 67.72L22.3 67.4L21.48 67L18.64 65.62L14.86 63.8L13.68 63.22L12 62.7V53.76C12.94 52.64 13.94 51.58 15 50.56C15.68 49.92 16.4 49.28 17.14 48.68C17.26 48.58 17.38 48.48 17.5 48.4C17.58 48.3 17.68 48.24 17.76 48.2C18.94 47.24 20.18 46.38 21.46 45.6C22.94 44.66 24.5 43.82 26.12 43.12C27.86 42.34 29.68 41.68 31.56 41.18C34.82 40.26 38.28 39.78 41.84 39.78C50 39.78 57.54 42.26 63.76 46.52C67.74 49.24 71.18 52.68 73.9 56.66C74.8 57.94 75.6 59.3 76.34 60.7C76.6 61.22 76.86 61.74 77.08 62.26C77.32 62.76 77.54 63.26 77.76 63.76C78.18 64.8 78.56 65.84 78.9 66.92C79.54 68.92 80.02 70.96 80.32 73.08C80.42 73.78 80.5 74.48 80.56 75.18Z" fill="#FFBF00"/>
<path d="M76.78 78.84C76.78 79 76.78 79.18 76.76 79.36C75.82 80.14 74.82 80.84 73.76 81.44C73.32 81.68 72.88 81.92 72.42 82.12C71.96 82.34 71.5 82.54 71.02 82.72C70.34 82.36 69.42 81.92 68.44 81.5C67.06 80.88 65.56 80.32 64.4 80.14C64.12 80.08 63.86 80.06 63.62 80.06L60.34 79.64H60.3L56.22 79.1L52.1 78.56L50.18 78.32L35.06 76.36C34.08 76.36 33.04 76.3 31.96 76.16C30.64 76.04 29.26 75.84 27.88 75.56C26.52 75.32 25.14 75 23.82 74.66C22.44 74.34 21.08 73.96 19.82 73.6C18.36 73.16 17 72.74 15.86 72.36C14.92 72.06 14.12 71.78 13.5 71.56C13.14 70.7 12.84 69.8 12.62 68.88C12.2 67.32 12 65.68 12 64V60.66C12.64 59.6 13.34 58.56 14.12 57.58C15.54 55.7 17.16 53.98 18.92 52.46C18.98 52.38 19.06 52.32 19.12 52.28L19.14 52.26C19.76 51.7 20.4 51.2 21.08 50.72C21.16 50.64 21.24 50.58 21.32 50.52C21.64 50.28 21.98 50.04 22.34 49.82C25.2 47.88 28.36 46.36 31.74 45.34C34.94 44.38 38.32 43.88 41.84 43.88C48.82 43.88 55.34 45.94 60.78 49.46C64.8 52.04 68.26 55.44 70.9 59.42C71.22 59.88 71.52 60.34 71.82 60.82C73.2 63.16 74.34 65.68 75.18 68.32C75.28 68.62 75.36 68.92 75.44 69.24C75.6 69.78 75.74 70.34 75.86 70.9C75.9 71.04 75.94 71.18 75.98 71.34C76.26 72.6 76.46 73.92 76.6 75.24C76.6 75.26 76.6 75.26 76.6 75.26C76.72 76.44 76.78 77.64 76.78 78.84Z" fill="#FFBF00"/>
<path d="M72.66 78.84C72.66 79.54 72.62 80.3 72.54 81.06C72.5 81.42 72.46 81.78 72.42 82.12C71.96 82.34 71.5 82.54 71.02 82.72C70.12 83.06 69.2 83.34 68.26 83.54C67.62 83.68 66.96 83.8 66.3 83.86H66.28C65.66 83.48 64.94 83.02 64.2 82.5C62.86 81.56 61.46 80.5 60.34 79.64C60.32 79.62 60.32 79.62 60.3 79.6C59.12 78.7 58.28 78.02 58.28 78.02L56.16 78.1L52.08 78.24L50.18 78.32L42.54 78.6L36.08 78.84C35.66 78.86 35.16 78.86 34.54 78.84H34.52C33.68 78.82 32.68 78.76 31.58 78.66C30.3 78.56 28.9 78.44 27.48 78.3C26.1 78.14 24.7 77.98 23.36 77.82C21.88 77.66 20.48 77.48 19.28 77.32C18.34 77.2 17.52 77.1 16.86 77.02C16.3 76.38 15.8 75.72 15.32 75C14.6 73.92 13.98 72.78 13.5 71.56C13.14 70.7 12.84 69.8 12.62 68.88C13.2 67.1 13.96 65.42 14.86 63.8C15.58 62.48 16.42 61.22 17.34 60.02C18.24 58.84 19.22 57.74 20.28 56.74V56.72C20.58 56.42 20.88 56.14 21.18 55.88C21.74 55.36 22.32 54.88 22.92 54.42H22.94C22.96 54.38 22.98 54.38 23 54.36C23.48 53.98 23.98 53.64 24.48 53.3C27.44 51.28 30.78 49.78 34.38 48.9C36.76 48.32 39.26 48 41.84 48C46.92 48 51.72 49.22 55.94 51.42H55.96C59.58 53.28 62.78 55.84 65.36 58.92C66.78 60.56 68 62.36 69 64.26C69.7 65.54 70.3 66.88 70.8 68.24C70.84 68.36 70.88 68.46 70.92 68.56C71.26 69.56 71.56 70.6 71.82 71.64C72 72.38 72.14 73.14 72.26 73.9C72.3 74.14 72.34 74.36 72.36 74.6C72.56 75.98 72.66 77.4 72.66 78.84Z" fill="#FFBF00"/>
<path d="M68.56 78.84V79.04C68.56 79.72 68.5 80.58 68.44 81.5C68.38 82.18 68.32 82.88 68.26 83.54C67.62 83.68 66.96 83.8 66.3 83.86H66.28C65.52 83.96 64.78 84 64 84H60.5L59.74 83.78L55.8 82.58L51.8 81.38L42.54 78.6L38.54 77.4C38.54 77.4 36.88 78.06 34.54 78.84H34.52C33.62 79.14 32.64 79.46 31.6 79.78C30.3 80.16 28.92 80.54 27.56 80.84C26.16 81.16 24.78 81.4 23.54 81.5C23.16 81.54 22.78 81.56 22.44 81.56C21.32 80.94 20.24 80.2 19.26 79.38C18.4 78.66 17.6 77.88 16.86 77.02C16.3 76.38 15.8 75.72 15.32 75C15.46 74.1 15.62 73.22 15.86 72.36C16.46 69.98 17.4 67.7 18.64 65.62C19.32 64.44 20.08 63.3 20.96 62.24C20.98 62.18 21.04 62.12 21.1 62.08C21.08 62.06 21.1 62.06 21.1 62.06C21.36 61.72 21.64 61.4 21.92 61.1C21.92 61.08 21.92 61.08 21.92 61.08C22.74 60.2 23.58 59.36 24.5 58.58C24.82 58.32 25.12 58.06 25.46 57.8C25.52 57.74 25.58 57.7 25.66 57.64C30.16 54.2 35.78 52.12 41.84 52.12C48.72 52.12 54.98 54.7 59.72 58.94C62 61 63.94 63.46 65.4 66.2C65.52 66.4 65.64 66.62 65.74 66.84C65.92 67.2 66.1 67.58 66.26 67.98C66.92 69.42 67.44 70.94 67.8 72.5C67.84 72.66 67.88 72.82 67.92 72.98C68.08 73.72 68.22 74.48 68.32 75.24C68.48 76.42 68.56 77.62 68.56 78.84Z" fill="#FFBF00"/>
<path d="M64.44 78.84C64.44 79.24 64.42 79.68 64.4 80.14C64.36 80.88 64.3 81.68 64.2 82.5C64.16 83 64.08 83.5 64 84H53.04L50.92 83.66L42.64 82.34L41.46 82.16L38.76 81.72C37.58 81.72 35.02 82.24 32.32 82.74C30.9 83 29.46 83.28 28.16 83.46C28 83.48 27.84 83.5 27.7 83.52H27.68C26.28 83.22 24.92 82.76 23.64 82.16C23.24 81.98 22.84 81.78 22.44 81.56C21.32 80.94 20.24 80.2 19.26 79.38C19.24 79.14 19.22 78.94 19.22 78.84C19.22 78.32 19.24 77.82 19.28 77.32C19.36 76.04 19.54 74.8 19.82 73.6C20.26 71.78 20.9 70.02 21.76 68.4C21.92 68.06 22.1 67.72 22.3 67.4C22.38 67.24 22.48 67.1 22.56 66.94C22.92 66.36 23.32 65.8 23.72 65.24C24.56 64.14 25.5 63.1 26.5 62.16C26.52 62.16 26.52 62.16 26.52 62.16C26.6 62.08 26.68 62 26.76 61.94C26.86 61.86 26.94 61.76 27.04 61.7C27.44 61.34 27.84 61.02 28.26 60.72C28.26 60.7 28.28 60.7 28.28 60.7C32.06 57.88 36.74 56.22 41.84 56.22C45.8 56.22 49.48 57.22 52.7 58.98H52.72C55.48 60.5 57.88 62.56 59.78 65.04C60.52 66 61.18 67.02 61.74 68.1H61.76C61.86 68.3 61.96 68.5 62.06 68.7C62.66 69.88 63.14 71.12 63.5 72.4H63.52C63.54 72.5 63.58 72.6 63.6 72.7C63.84 73.56 64.04 74.44 64.18 75.34C64.2 75.52 64.22 75.72 64.24 75.9C64.38 76.86 64.44 77.84 64.44 78.84Z" fill="#FFBF00"/>
<path d="M60.34 78.62C60.34 78.94 60.34 79.28 60.3 79.6V79.62C60.3 79.64 60.3 79.64 60.3 79.64C60.26 81.08 60.06 82.5 59.74 83.78C59.74 83.86 59.72 83.92 59.68 84H50.34L42.64 82.34L41.62 82.12L41.46 82.16L32.92 83.92L32.54 84H32C30.72 84 29.46 83.88 28.24 83.64C28.06 83.6 27.88 83.56 27.7 83.52H27.68C26.28 83.22 24.92 82.76 23.64 82.16C23.6 81.94 23.56 81.72 23.54 81.5C23.4 80.64 23.34 79.74 23.34 78.84C23.34 78.5 23.34 78.16 23.36 77.82C23.42 76.74 23.58 75.68 23.82 74.66C23.98 73.9 24.2 73.16 24.46 72.46C24.68 71.84 24.94 71.24 25.22 70.66C25.46 70.16 25.74 69.68 26.02 69.2C26.3 68.74 26.6 68.3 26.92 67.86C27.72 66.76 28.66 65.74 29.7 64.84C30.3 64.32 30.96 63.82 31.64 63.38C34.56 61.46 38.06 60.34 41.84 60.34C42.58 60.34 43.3 60.38 44 60.48H44.04C46.18 60.72 48.18 61.32 50.02 62.22C50.04 62.22 50.04 62.22 50.04 62.22C52.94 63.64 55.4 65.78 57.2 68.42C57.5 68.86 57.8 69.34 58.06 69.82C58.28 70.2 58.48 70.6 58.66 71C58.94 71.62 59.2 72.28 59.42 72.94H59.44C59.66 73.68 59.86 74.42 60 75.2V75.22C60.22 76.32 60.34 77.46 60.34 78.62Z" fill="#FFBF00"/>
<path d="M56.22 79.04V79.1C56.22 80.28 56.08 81.44 55.8 82.58C55.7 83.06 55.56 83.54 55.38 84H46.42L41.84 82.74L37.26 84H32C30.72 84 29.46 83.88 28.24 83.64C28.2 83.58 28.18 83.52 28.16 83.46C27.88 82.6 27.66 81.74 27.56 80.84C27.48 80.26 27.44 79.66 27.44 79.04C27.44 78.8 27.44 78.54 27.48 78.3C27.5 77.36 27.64 76.44 27.88 75.56C28 74.96 28.18 74.38 28.42 73.82C28.5 73.54 28.62 73.28 28.76 73.02C29.06 72.34 29.42 71.68 29.82 71.04C30.26 70.4 30.74 69.8 31.28 69.24C31.92 68.52 32.64 67.86 33.46 67.32C34.86 66.3 36.46 65.54 38.2 65.12C39.36 64.8 40.58 64.64 41.84 64.64C45.84 64.64 49.42 66.24 52.02 68.82C52.12 68.92 52.24 69.04 52.34 69.18H52.36C52.64 69.48 52.9 69.78 53.16 70.12C53.9 71.06 54.52 72.08 55 73.2C55.24 73.72 55.44 74.26 55.6 74.82C55.62 74.9 55.64 74.96 55.66 75.04C55.94 76.02 56.12 77.04 56.16 78.1C56.2 78.4 56.22 78.72 56.22 79.04Z" fill="#FFBF00"/>
<path d="M52.12 79.04C52.12 79.86 52.02 80.64 51.8 81.38C51.6 82.18 51.3 82.94 50.92 83.66C50.86 83.78 50.72 84 50.72 84H32.96C32.94 83.98 32.92 83.94 32.92 83.92C32.68 83.54 32.48 83.16 32.32 82.74C31.92 81.82 31.68 80.82 31.6 79.78C31.56 79.54 31.56 79.28 31.56 79.04C31.56 78.92 31.56 78.78 31.58 78.66C31.6 77.78 31.72 76.94 31.96 76.16C32.16 75.44 32.42 74.78 32.76 74.14C32.76 74.14 32.78 74.12 32.78 74.1C33.02 73.68 33.28 73.26 33.58 72.86C34.56 71.54 35.86 70.46 37.36 69.76C37.38 69.76 37.38 69.76 37.38 69.76C37.86 69.52 38.36 69.32 38.88 69.18C38.88 69.18 38.88 69.18 38.9 69.18C39.82 68.9 40.82 68.76 41.84 68.76C43.02 68.76 44.16 68.94 45.2 69.32C45.58 69.42 45.94 69.58 46.3 69.76C46.3 69.76 46.3 69.76 46.32 69.76C48.04 70.58 49.5 71.86 50.5 73.46C50.7 73.76 50.88 74.08 51.04 74.42C51.12 74.56 51.2 74.72 51.26 74.86C51.72 75.9 52 77.04 52.08 78.24C52.1 78.34 52.1 78.44 52.1 78.56C52.12 78.72 52.12 78.88 52.12 79.04Z" fill="#FFBF00"/>
<path d="M60 22H36C28.2 22 22 28.2 22 36V60C22 67.8 28.2 74 36 74H60C67.8 74 74 67.8 74 60V36C74 28.2 67.8 22 60 22Z" stroke="#22223B" stroke-width="4" stroke-miterlimit="10" stroke-linecap="round" stroke-linejoin="round"/>
<path d="M62 34C63.1046 34 64 33.1046 64 32C64 30.8954 63.1046 30 62 30C60.8954 30 60 30.8954 60 32C60 33.1046 60.8954 34 62 34Z" fill="#22223B"/>
<path d="M48 60C54.6274 60 60 54.6274 60 48C60 41.3726 54.6274 36 48 36C41.3726 36 36 41.3726 36 48C36 54.6274 41.3726 60 48 60Z" stroke="#22223B" stroke-width="4" stroke-miterlimit="10" stroke-linecap="round" stroke-linejoin="round"/>
</svg>
