<svg width="96" height="96" viewBox="0 0 96 96" fill="none" xmlns="http://www.w3.org/2000/svg">
<path d="M20 66.036C21.192 66.036 22.53 66.036 24 66.036V38.082C21.78 40.084 20.602 42.506 20 44.324V66.036ZM42 36.21C40.65 35.578 38.496 34.78 36 34.536V66.034C37.952 66.034 39.96 66.034 42 66.034V36.21ZM28 66.036C29.886 66.036 31.9 66.036 34 66.036V34.48C31.654 34.54 29.658 34.94 28 35.596V66.036ZM8 47.906C5.644 49.698 4 52.606 4 55.984C4 59.156 5.59 61.958 8 63.794V47.906ZM81.99 44.032C79.102 44.032 77.424 45.074 77.424 45.074C77.424 45.074 75.746 28.098 58.882 28.098C49.07 28.098 45.222 33.506 44 35.892V66.034C61.65 66.034 80.594 66.034 80.594 66.034C80.594 66.034 92.332 65.846 92.332 55.128C92.332 46.878 84.878 44.032 81.99 44.032ZM16 46.2C15.21 46.098 14.316 46.024 13.318 46.024C12.872 46.024 12.436 46.098 12 46.17V65.704C12.846 65.912 13.722 66.036 14.622 66.036C14.924 66.036 15.408 66.036 16 66.036V46.2Z" fill="#FFBF00"/>
</svg>
