<svg width="96" height="96" viewBox="0 0 96 96" fill="none" xmlns="http://www.w3.org/2000/svg">
<path d="M48 8C25.908 8 8 25.908 8 48C8 70.092 25.908 88 48 88C70.092 88 88 70.092 88 48C88 25.908 70.092 8 48 8Z" fill="url(#paint0_linear_0_3)"/>
<path d="M53.414 58.602H63.766L65.392 48.086H53.414V42.338C53.414 37.97 54.842 34.096 58.928 34.096H65.494V24.92C64.34 24.764 61.9 24.424 57.29 24.424C47.662 24.424 42.018 29.508 42.018 41.092V48.088H32.12V58.604H42.016V87.508C43.976 87.8 45.962 88 48 88C49.842 88 51.64 87.832 53.414 87.592V58.602Z" fill="#22223B"/>
<defs>
<linearGradient id="paint0_linear_0_3" x1="19.986" y1="19.986" x2="81.23" y2="81.23" gradientUnits="userSpaceOnUse">
<stop stop-color="#FFBF00"/>
<stop offset="1" stop-color="#FFDC73"/>
</linearGradient>
</defs>
</svg>
