<svg width="96" height="96" viewBox="0 0 96 96" fill="none" xmlns="http://www.w3.org/2000/svg">
<path d="M79.694 72.334C79.714 72.306 79.742 72.28 79.762 72.252L79.696 72.268C79.676 72.296 79.652 72.322 79.63 72.35L79.694 72.334Z" fill="#80D8FF"/>
<path d="M29.254 83.29C37.326 87.6 46.9 89.182 56.542 87.072C66.184 84.964 74.226 79.532 79.762 72.248L29.254 83.29Z" fill="#FFBF00"/>
<path d="M29.274 83.288L79.696 72.266C82.254 68.918 84.31 65.198 85.712 61.202L19.236 75.734C22.166 78.766 25.552 81.316 29.254 83.292L29.274 83.288Z" fill="#FFBF00"/>
<path d="M87.874 50.98L13.008 67.346C14.72 70.446 16.838 73.25 19.248 75.746L85.7 61.238C86.852 57.96 87.61 54.522 87.874 50.98Z" fill="#FFBF00"/>
<path d="M87.874 50.98C88.154 47.21 87.922 43.34 87.074 39.456L8.928 56.54C9.778 60.422 11.18 64.036 13.008 67.344L87.874 50.98Z" fill="#FFBF00"/>
<path d="M87.074 39.46C86.33 36.052 85.13 32.87 83.622 29.896L8.088 46.158C7.932 49.57 8.166 53.048 8.93 56.542L87.074 39.46Z" fill="#FFBF00"/>
<path d="M83.618 29.896C83.644 29.948 83.686 29.994 83.716 30.042C81.516 25.678 78.58 21.816 75.08 18.598L11.124 32.58C9.342 36.834 8.332 41.422 8.114 46.15L83.618 29.896Z" fill="#FFBF00"/>
<path d="M75.08 18.6C75.104 18.622 75.138 18.636 75.164 18.66C71.68 15.444 67.646 12.868 63.264 11.052L18.714 20.79C15.516 24.24 12.97 28.24 11.152 32.574L75.08 18.6Z" fill="#FFBF00"/>
<path d="M18.714 20.79L63.266 11.052C55.984 8.036 47.746 7.116 39.46 8.926C31.174 10.736 24.072 15.01 18.714 20.79Z" fill="#FFBF00"/>
<path d="M48 11.998C28.12 11.998 12 28.118 12 48C12 67.882 28.118 84.002 48 84.002C67.882 84.002 84 67.882 84 48C84 28.118 67.882 11.998 48 11.998ZM66 56.624C66 61.778 61.82 65.96 56.666 65.96H56.482C53.236 65.96 50.528 64.074 50.032 60.868C49.942 60.278 49.936 59.688 50.014 59.098C50.342 56.57 52.142 54.516 54.524 53.806L55.052 53.678L60.63 52C61.436 51.794 62 51.07 62 50.238V36.624C62 35.494 61.022 34.636 59.908 34.832L44.05 38.288C42.84 38.502 42 39.552 42 40.782V62.664C42 67.82 38.184 72 33.03 72H32.846C29.6 72 26.57 69.792 26.074 66.586C25.984 65.996 25.978 65.406 26.056 64.816C26.384 62.288 28.184 60.234 30.566 59.524L31.094 59.396L36.634 57.758C37.436 57.556 38 56.83 38 56V29.334C38 28.126 38.866 27.094 40.054 26.884L63.864 22.028C64.98 21.832 66 22.688 66 23.82V56.624Z" fill="#22223B"/>
</svg>
