<svg width="96" height="96" viewBox="0 0 96 96" fill="none" xmlns="http://www.w3.org/2000/svg">
<path d="M48.002 8C25.848 8 8.00201 25.846 8.00201 48C8.00201 70.154 25.848 88 48.002 88C70.154 88 88.002 70.154 88.002 48C88.002 25.846 70.154 8 48.002 8Z" fill="#FFBF00"/>
<path d="M63.494 67.83C62.91 67.83 62.324 67.54 61.74 67.246C56.186 64.032 49.462 62.278 42.156 62.278C38.062 62.278 33.97 62.86 30.17 63.738C29.586 63.738 28.708 64.03 28.416 64.03C26.954 64.03 26.078 62.858 26.078 61.69C26.078 60.23 26.954 59.35 28.124 59.062C32.8 57.89 37.478 57.308 42.446 57.308C50.632 57.308 58.232 59.35 64.662 63.156C65.538 63.738 66.124 64.324 66.124 65.784C65.832 66.956 64.662 67.83 63.494 67.83ZM67.586 57.89C66.71 57.89 66.126 57.602 65.54 57.308C59.404 53.508 50.924 51.166 41.28 51.166C36.602 51.166 32.218 51.752 29.002 52.632C28.124 52.92 27.832 52.92 27.248 52.92C25.494 52.92 24.324 51.46 24.324 49.998C24.324 48.244 25.202 47.366 26.662 46.784C31.046 45.616 35.432 44.738 41.57 44.738C51.51 44.738 61.156 47.078 68.756 51.752C69.924 52.334 70.51 53.506 70.51 54.674C70.51 56.43 69.34 57.89 67.586 57.89ZM72.264 46.202C71.388 46.202 71.094 45.91 70.218 45.62C63.202 41.526 52.68 39.186 42.448 39.186C37.186 39.186 31.924 39.772 27.248 40.94C26.662 40.94 26.078 41.232 25.202 41.232C23.156 41.524 21.694 39.772 21.694 37.724C21.694 35.678 22.864 34.51 24.324 34.216C29.878 32.462 35.724 31.876 42.448 31.876C53.556 31.876 65.248 34.216 74.018 39.184C75.186 39.77 76.062 40.938 76.062 42.692C75.772 44.738 74.308 46.202 72.264 46.202Z" fill="#22223B"/>
</svg>
